# xmcd
# 
# Track frame offsets:
#     150
#     44585
#     85450
#     113830
#     192145
#     223330
#     276880
# 
# Disc length: 4575
# 
# Revision: 11
# Processed by: cddbd v1.5.2PL0 Copyright (c) Steve Scherf et al.
# Submitted via: BonkEnc v1.0.6
# 
DISCID=6a11dd07
DTITLE=Dave Holland - What Goes Around
DYEAR=2001
DGENRE=Big Band
TTITLE0=Triple Dance
TTITLE1=Blues for C.M.
TTITLE2=The Razor's Edge
TTITLE3=What Goes Around
TTITLE4=Upswing
TTITLE5=First Snow
TTITLE6=Shadow Dance
EXTD=
EXTT0=
EXTT1=
EXTT2=
EXTT3=
EXTT4=
EXTT5=
EXTT6=
PLAYORDER=
